<svg xmlns="http://www.w3.org/2000/svg" xmlns:xlink="http://www.w3.org/1999/xlink" width="1366" zoomAndPan="magnify" viewBox="0 0 1024.5 576" height="768" preserveAspectRatio="xMidYMid meet" version="1.0"><defs><clipPath id="766995a7a3"><path d="M 281.710938 57.710938 L 741.988281 57.710938 L 741.988281 517.988281 L 281.710938 517.988281 Z M 281.710938 57.710938 " clip-rule="nonzero"/></clipPath></defs><g clip-path="url(#766995a7a3)"><path fill="#ffffff" d="M 511.996094 57.710938 C 385.019531 57.710938 281.710938 161.019531 281.710938 287.996094 C 281.710938 414.972656 385.019531 518.28125 511.996094 518.28125 C 638.972656 518.28125 742.28125 414.972656 742.28125 287.996094 C 742.28125 161.019531 638.972656 57.710938 511.996094 57.710938 Z M 511.996094 117.785156 C 550.644531 117.785156 582.082031 149.226562 582.082031 187.871094 C 582.082031 226.519531 550.644531 257.960938 511.996094 257.960938 C 473.347656 257.960938 441.910156 226.519531 441.910156 187.871094 C 441.910156 149.226562 473.347656 117.785156 511.996094 117.785156 Z M 632.144531 418.15625 L 391.847656 418.15625 C 386.320312 418.15625 381.835938 413.671875 381.835938 408.144531 C 381.835938 336.375 440.226562 277.984375 511.996094 277.984375 C 583.765625 277.984375 642.15625 336.375 642.15625 408.144531 C 642.15625 413.671875 637.671875 418.15625 632.144531 418.15625 Z M 632.144531 418.15625 " fill-opacity="1" fill-rule="nonzero"/></g></svg>