<svg xmlns="http://www.w3.org/2000/svg" xmlns:xlink="http://www.w3.org/1999/xlink" width="1366" zoomAndPan="magnify" viewBox="0 0 1024.5 576" height="768" preserveAspectRatio="xMidYMid meet" version="1.0"><path fill="#448043" d="M 665.328125 193.6875 C 671.214844 185.976562 677.394531 177.898438 683.804688 169.503906 C 734.214844 233.464844 743.578125 358.734375 653.695312 441.691406 C 570.707031 518.285156 440.417969 515.046875 361.082031 434.46875 C 281.246094 353.394531 280.421875 224.113281 358.742188 142.121094 C 439.390625 57.707031 566.996094 60.410156 639.996094 122.117188 C 632.792969 128.523438 625.570312 134.945312 617.042969 142.535156 C 573.972656 111.289062 523.199219 100.777344 468.601562 113.464844 C 427.101562 123.109375 393.191406 145.882812 367.699219 180.222656 C 315.257812 250.851562 320.945312 346.363281 381.015625 409.675781 C 441.09375 473 536.09375 483.785156 609.679688 436.402344 C 670.230469 397.414062 723.011719 302.269531 665.328125 193.6875 Z M 665.328125 193.6875 " fill-opacity="1" fill-rule="nonzero"/><path fill="#448043" d="M 478.195312 303.300781 C 503.304688 278.925781 527.53125 256.050781 551.027344 232.453125 C 598.078125 185.21875 644.71875 137.578125 691.570312 90.140625 C 694.480469 87.1875 697.421875 84.160156 700.789062 81.808594 C 706.160156 78.050781 711.816406 78.847656 716.660156 82.882812 C 722.039062 87.359375 723.597656 93.316406 720.628906 99.738281 C 719.128906 102.984375 716.582031 105.769531 714.363281 108.65625 C 640.75 204.457031 567.125 300.25 493.5 396.035156 C 492.226562 397.6875 491.035156 399.402344 489.664062 400.96875 C 479.617188 412.425781 470.644531 412.171875 462.042969 399.277344 C 447.605469 377.613281 433.722656 355.582031 419.617188 333.699219 C 409.179688 317.503906 398.425781 301.503906 388.414062 285.046875 C 379.382812 270.199219 383.316406 253.816406 397.0625 245.582031 C 408.15625 238.9375 418.0625 240.308594 427.859375 250.515625 C 443.011719 266.292969 457.878906 282.339844 472.902344 298.238281 C 474.65625 300.101562 476.601562 301.785156 478.195312 303.300781 Z M 478.195312 303.300781 " fill-opacity="1" fill-rule="nonzero"/></svg>