<svg xmlns="http://www.w3.org/2000/svg" xmlns:xlink="http://www.w3.org/1999/xlink" width="1366" zoomAndPan="magnify" viewBox="0 0 1024.5 576" height="768" preserveAspectRatio="xMidYMid meet" version="1.0"><path fill="#ffffff" d="M 580.890625 199.707031 C 580.238281 200.359375 579.496094 200.933594 578.652344 201.410156 C 573.628906 204.265625 567.238281 202.507812 564.382812 197.480469 C 559.753906 189.332031 554.007812 181.808594 547.316406 175.113281 C 543.226562 171.023438 543.226562 164.398438 547.316406 160.3125 C 551.402344 156.222656 558.03125 156.222656 562.121094 160.3125 C 570.140625 168.332031 577.027344 177.355469 582.582031 187.136719 C 584.964844 191.324219 584.140625 196.460938 580.890625 199.707031 " fill-opacity="1" fill-rule="nonzero"/><path fill="#ffffff" d="M 528.546875 151.757812 C 525.539062 154.761719 520.878906 155.742188 516.789062 153.875 C 492.363281 142.714844 463.796875 141.425781 438.410156 150.339844 C 432.957031 152.257812 426.980469 149.386719 425.066406 143.933594 C 423.152344 138.476562 426.027344 132.503906 431.476562 130.585938 C 462.367188 119.742188 495.753906 121.246094 525.488281 134.832031 C 530.746094 137.234375 533.066406 143.445312 530.660156 148.703125 C 530.128906 149.871094 529.398438 150.898438 528.546875 151.757812 " fill-opacity="1" fill-rule="nonzero"/><path fill="#ffffff" d="M 612.792969 249.214844 C 612.792969 286.496094 598.273438 321.546875 571.90625 347.910156 C 545.546875 374.273438 510.496094 388.792969 473.214844 388.792969 C 435.933594 388.792969 400.882812 374.273438 374.519531 347.910156 C 348.15625 321.546875 333.636719 286.496094 333.636719 249.214844 C 333.636719 211.933594 348.15625 176.882812 374.519531 150.519531 C 400.882812 124.15625 435.933594 109.636719 473.214844 109.636719 C 510.496094 109.636719 545.546875 124.15625 571.90625 150.519531 C 598.273438 176.882812 612.792969 211.933594 612.792969 249.214844 Z M 349.847656 125.84375 C 281.710938 193.980469 281.710938 304.449219 349.847656 372.582031 C 415.214844 437.953125 519.546875 440.59375 588.078125 380.527344 L 594.691406 387.136719 C 592.625 394.894531 594.609375 403.511719 600.695312 409.589844 L 700.273438 509.171875 C 709.359375 518.257812 724.085938 518.257812 733.175781 509.171875 C 742.257812 500.085938 742.257812 485.359375 733.175781 476.273438 L 633.59375 376.695312 C 627.511719 370.609375 618.894531 368.621094 611.140625 370.691406 L 604.527344 364.078125 C 664.597656 295.546875 661.957031 191.214844 596.582031 125.84375 C 528.449219 57.710938 417.980469 57.710938 349.847656 125.84375 " fill-opacity="1" fill-rule="nonzero"/></svg>