<svg xmlns="http://www.w3.org/2000/svg" xmlns:xlink="http://www.w3.org/1999/xlink" width="1366" zoomAndPan="magnify" viewBox="0 0 1024.5 576" height="768" preserveAspectRatio="xMidYMid meet" version="1.0"><defs><g/><clipPath id="77f8ff1bd5"><path d="M 206.851562 206.609375 L 755.835938 206.609375 L 755.835938 325.8125 L 206.851562 325.8125 Z M 206.851562 206.609375 " clip-rule="nonzero"/></clipPath><clipPath id="95e737653f"><path d="M 208.351562 206.609375 L 753.96875 206.609375 C 754.796875 206.609375 755.46875 207.28125 755.46875 208.109375 L 755.46875 324.3125 C 755.46875 325.140625 754.796875 325.8125 753.96875 325.8125 L 208.351562 325.8125 C 207.523438 325.8125 206.851562 325.140625 206.851562 324.3125 L 206.851562 208.109375 C 206.851562 207.28125 207.523438 206.609375 208.351562 206.609375 Z M 208.351562 206.609375 " clip-rule="nonzero"/></clipPath><clipPath id="7645b55a15"><path d="M 753.957031 206.609375 L 837.574219 206.609375 L 837.574219 325.832031 L 753.957031 325.832031 Z M 753.957031 206.609375 " clip-rule="nonzero"/></clipPath><clipPath id="2d5a376958"><path d="M 837.574219 266.210938 L 753.957031 325.8125 L 753.957031 206.609375 Z M 837.574219 266.210938 " clip-rule="nonzero"/></clipPath><clipPath id="63304dcb2f"><path d="M 715.128906 247.3125 L 741.363281 247.3125 L 741.363281 284.792969 L 715.128906 284.792969 Z M 715.128906 247.3125 " clip-rule="nonzero"/></clipPath></defs><g clip-path="url(#77f8ff1bd5)"><g clip-path="url(#95e737653f)"><path fill="#181d47" d="M 206.851562 206.609375 L 755.371094 206.609375 L 755.371094 325.8125 L 206.851562 325.8125 Z M 206.851562 206.609375 " fill-opacity="1" fill-rule="nonzero"/></g></g><g clip-path="url(#7645b55a15)"><g clip-path="url(#2d5a376958)"><path fill="#181d47" d="M 837.574219 206.609375 L 837.574219 325.832031 L 753.957031 325.832031 L 753.957031 206.609375 Z M 837.574219 206.609375 " fill-opacity="1" fill-rule="nonzero"/></g></g><g clip-path="url(#63304dcb2f)"><path fill="#ffffff" d="M 716.324219 285.066406 C 716 285.066406 715.675781 284.914062 715.46875 284.632812 C 715.125 284.160156 715.226562 283.5 715.699219 283.15625 L 738.746094 266.273438 L 715.699219 249.394531 C 715.226562 249.046875 715.125 248.386719 715.46875 247.914062 C 715.816406 247.445312 716.476562 247.34375 716.949219 247.6875 L 741.160156 265.421875 C 741.429688 265.621094 741.589844 265.9375 741.589844 266.273438 C 741.589844 266.609375 741.429688 266.925781 741.160156 267.125 L 716.949219 284.859375 C 716.757812 285 716.539062 285.066406 716.324219 285.066406 Z M 716.324219 285.066406 " fill-opacity="1" fill-rule="nonzero"/></g><g fill="#ffffff" fill-opacity="1"><g transform="translate(345.807331, 275.207033)"><g><path d="M 13.625 -12.296875 C 13.382812 -13.148438 12.9375 -13.816406 12.28125 -14.296875 C 11.625 -14.773438 10.804688 -15.015625 9.828125 -15.015625 C 8.429688 -15.015625 7.300781 -14.5 6.4375 -13.46875 C 5.582031 -12.445312 5.15625 -10.992188 5.15625 -9.109375 C 5.15625 -7.203125 5.578125 -5.734375 6.421875 -4.703125 C 7.265625 -3.671875 8.410156 -3.15625 9.859375 -3.15625 C 11.140625 -3.15625 12.144531 -3.484375 12.875 -4.140625 C 13.601562 -4.804688 13.976562 -5.703125 14 -6.828125 L 10.09375 -6.828125 L 10.09375 -9.71875 L 17.703125 -9.71875 L 17.703125 -7.4375 C 17.703125 -5.84375 17.363281 -4.46875 16.6875 -3.3125 C 16.007812 -2.164062 15.082031 -1.285156 13.90625 -0.671875 C 12.726562 -0.0546875 11.375 0.25 9.84375 0.25 C 8.132812 0.25 6.632812 -0.125 5.34375 -0.875 C 4.0625 -1.632812 3.0625 -2.707031 2.34375 -4.09375 C 1.625 -5.488281 1.265625 -7.144531 1.265625 -9.0625 C 1.265625 -11.03125 1.640625 -12.710938 2.390625 -14.109375 C 3.140625 -15.503906 4.15625 -16.570312 5.4375 -17.3125 C 6.71875 -18.050781 8.160156 -18.421875 9.765625 -18.421875 C 11.128906 -18.421875 12.367188 -18.160156 13.484375 -17.640625 C 14.597656 -17.117188 15.507812 -16.394531 16.21875 -15.46875 C 16.925781 -14.550781 17.363281 -13.492188 17.53125 -12.296875 Z M 13.625 -12.296875 "/></g></g></g><g fill="#ffffff" fill-opacity="1"><g transform="translate(364.811521, 275.207033)"><g><path d="M 1.578125 0 L 1.578125 -18.171875 L 8.75 -18.171875 C 10.8125 -18.171875 12.410156 -17.628906 13.546875 -16.546875 C 14.691406 -15.472656 15.265625 -14.035156 15.265625 -12.234375 C 15.265625 -10.992188 14.984375 -9.929688 14.421875 -9.046875 C 13.867188 -8.171875 13.078125 -7.507812 12.046875 -7.0625 L 15.90625 0 L 11.671875 0 L 8.21875 -6.4375 L 5.421875 -6.4375 L 5.421875 0 Z M 5.421875 -9.53125 L 8.03125 -9.53125 C 10.207031 -9.53125 11.296875 -10.429688 11.296875 -12.234375 C 11.296875 -14.097656 10.203125 -15.03125 8.015625 -15.03125 L 5.421875 -15.03125 Z M 5.421875 -9.53125 "/></g></g></g><g fill="#ffffff" fill-opacity="1"><g transform="translate(381.207297, 275.207033)"><g><path d="M 4.71875 0 L 0.59375 0 L 6.859375 -18.171875 L 11.8125 -18.171875 L 18.078125 0 L 13.96875 0 L 12.609375 -4.140625 L 6.0625 -4.140625 Z M 7.03125 -7.140625 L 11.65625 -7.140625 L 9.40625 -14.015625 L 9.265625 -14.015625 Z M 7.96875 -19.9375 L 9.859375 -23.96875 L 13.359375 -23.96875 L 10.640625 -19.9375 Z M 7.96875 -19.9375 "/></g></g></g><g fill="#ffffff" fill-opacity="1"><g transform="translate(399.89209, 275.207033)"><g><path d="M 1.578125 0 L 1.578125 -18.171875 L 13.609375 -18.171875 L 13.609375 -15 L 5.421875 -15 L 5.421875 -10.671875 L 12.8125 -10.671875 L 12.8125 -7.5 L 5.421875 -7.5 L 5.421875 0 Z M 1.578125 0 "/></g></g></g><g fill="#ffffff" fill-opacity="1"><g transform="translate(414.504556, 275.207033)"><g><path d="M 5.421875 -18.171875 L 5.421875 0 L 1.578125 0 L 1.578125 -18.171875 Z M 5.421875 -18.171875 "/></g></g></g><g fill="#ffffff" fill-opacity="1"><g transform="translate(421.513571, 275.207033)"><g><path d="M 17.609375 -11.8125 L 13.71875 -11.8125 C 13.570312 -12.8125 13.144531 -13.59375 12.4375 -14.15625 C 11.738281 -14.726562 10.863281 -15.015625 9.8125 -15.015625 C 8.40625 -15.015625 7.273438 -14.5 6.421875 -13.46875 C 5.578125 -12.4375 5.15625 -10.972656 5.15625 -9.078125 C 5.15625 -7.140625 5.582031 -5.664062 6.4375 -4.65625 C 7.289062 -3.65625 8.40625 -3.15625 9.78125 -3.15625 C 10.8125 -3.15625 11.679688 -3.421875 12.390625 -3.953125 C 13.097656 -4.484375 13.539062 -5.234375 13.71875 -6.203125 L 17.609375 -6.1875 C 17.472656 -5.082031 17.078125 -4.035156 16.421875 -3.046875 C 15.765625 -2.066406 14.875 -1.269531 13.75 -0.65625 C 12.625 -0.0507812 11.28125 0.25 9.71875 0.25 C 8.101562 0.25 6.65625 -0.113281 5.375 -0.84375 C 4.101562 -1.582031 3.097656 -2.644531 2.359375 -4.03125 C 1.628906 -5.425781 1.265625 -7.109375 1.265625 -9.078125 C 1.265625 -11.066406 1.632812 -12.753906 2.375 -14.140625 C 3.125 -15.535156 4.132812 -16.597656 5.40625 -17.328125 C 6.6875 -18.054688 8.125 -18.421875 9.71875 -18.421875 C 11.125 -18.421875 12.390625 -18.160156 13.515625 -17.640625 C 14.640625 -17.117188 15.5625 -16.363281 16.28125 -15.375 C 17 -14.394531 17.441406 -13.207031 17.609375 -11.8125 Z M 17.609375 -11.8125 "/></g></g></g><g fill="#ffffff" fill-opacity="1"><g transform="translate(440.304833, 275.207033)"><g><path d="M 18.28125 -9.078125 C 18.28125 -7.097656 17.90625 -5.410156 17.15625 -4.015625 C 16.40625 -2.628906 15.390625 -1.570312 14.109375 -0.84375 C 12.828125 -0.113281 11.378906 0.25 9.765625 0.25 C 8.148438 0.25 6.703125 -0.113281 5.421875 -0.84375 C 4.140625 -1.582031 3.125 -2.644531 2.375 -4.03125 C 1.632812 -5.425781 1.265625 -7.109375 1.265625 -9.078125 C 1.265625 -11.066406 1.632812 -12.753906 2.375 -14.140625 C 3.125 -15.535156 4.140625 -16.597656 5.421875 -17.328125 C 6.703125 -18.054688 8.148438 -18.421875 9.765625 -18.421875 C 11.378906 -18.421875 12.828125 -18.054688 14.109375 -17.328125 C 15.390625 -16.597656 16.40625 -15.535156 17.15625 -14.140625 C 17.90625 -12.753906 18.28125 -11.066406 18.28125 -9.078125 Z M 14.375 -9.078125 C 14.375 -11.015625 13.953125 -12.488281 13.109375 -13.5 C 12.273438 -14.507812 11.160156 -15.015625 9.765625 -15.015625 C 8.367188 -15.015625 7.25 -14.507812 6.40625 -13.5 C 5.570312 -12.488281 5.15625 -11.015625 5.15625 -9.078125 C 5.15625 -7.160156 5.570312 -5.691406 6.40625 -4.671875 C 7.25 -3.660156 8.367188 -3.15625 9.765625 -3.15625 C 11.160156 -3.15625 12.273438 -3.660156 13.109375 -4.671875 C 13.953125 -5.691406 14.375 -7.160156 14.375 -9.078125 Z M 14.375 -9.078125 "/></g></g></g><g fill="#ffffff" fill-opacity="1"><g transform="translate(459.84136, 275.207033)"><g/></g></g><g fill="#ffffff" fill-opacity="1"><g transform="translate(465.634885, 275.207033)"><g><path d="M 8.015625 0 L 1.578125 0 L 1.578125 -18.171875 L 8.078125 -18.171875 C 9.898438 -18.171875 11.472656 -17.804688 12.796875 -17.078125 C 14.117188 -16.359375 15.132812 -15.320312 15.84375 -13.96875 C 16.550781 -12.613281 16.90625 -10.992188 16.90625 -9.109375 C 16.90625 -7.210938 16.546875 -5.582031 15.828125 -4.21875 C 15.117188 -2.863281 14.097656 -1.820312 12.765625 -1.09375 C 11.441406 -0.363281 9.859375 0 8.015625 0 Z M 5.421875 -3.296875 L 7.859375 -3.296875 C 9.566406 -3.296875 10.863281 -3.753906 11.75 -4.671875 C 12.632812 -5.597656 13.078125 -7.078125 13.078125 -9.109375 C 13.078125 -11.117188 12.632812 -12.582031 11.75 -13.5 C 10.863281 -14.414062 9.570312 -14.875 7.875 -14.875 L 5.421875 -14.875 Z M 5.421875 -3.296875 "/></g></g></g><g fill="#ffffff" fill-opacity="1"><g transform="translate(483.805094, 275.207033)"><g><path d="M 4.71875 0 L 0.59375 0 L 6.859375 -18.171875 L 11.8125 -18.171875 L 18.078125 0 L 13.96875 0 L 12.609375 -4.140625 L 6.0625 -4.140625 Z M 7.03125 -7.140625 L 11.65625 -7.140625 L 9.40625 -14.015625 L 9.265625 -14.015625 Z M 7.03125 -7.140625 "/></g></g></g><g fill="#ffffff" fill-opacity="1"><g transform="translate(502.489887, 275.207033)"><g/></g></g><g fill="#ffffff" fill-opacity="1"><g transform="translate(508.283411, 275.207033)"><g><path d="M 1.578125 0 L 1.578125 -18.171875 L 13.609375 -18.171875 L 13.609375 -15 L 5.421875 -15 L 5.421875 -10.671875 L 12.8125 -10.671875 L 12.8125 -7.5 L 5.421875 -7.5 L 5.421875 0 Z M 1.578125 0 "/></g></g></g><g fill="#ffffff" fill-opacity="1"><g transform="translate(522.895878, 275.207033)"><g><path d="M 12.828125 -18.171875 L 16.640625 -18.171875 L 16.640625 -6.15625 C 16.640625 -4.78125 16.316406 -3.613281 15.671875 -2.65625 C 15.023438 -1.707031 14.132812 -0.984375 13 -0.484375 C 11.875 0.00390625 10.578125 0.25 9.109375 0.25 C 7.640625 0.25 6.335938 0.00390625 5.203125 -0.484375 C 4.066406 -0.984375 3.175781 -1.707031 2.53125 -2.65625 C 1.894531 -3.613281 1.578125 -4.78125 1.578125 -6.15625 L 1.578125 -18.171875 L 5.421875 -18.171875 L 5.421875 -6.296875 C 5.421875 -5.316406 5.769531 -4.550781 6.46875 -4 C 7.175781 -3.445312 8.054688 -3.171875 9.109375 -3.171875 C 10.191406 -3.171875 11.082031 -3.445312 11.78125 -4 C 12.476562 -4.550781 12.828125 -5.316406 12.828125 -6.296875 Z M 12.828125 -18.171875 "/></g></g></g><g fill="#ffffff" fill-opacity="1"><g transform="translate(541.119321, 275.207033)"><g><path d="M 16.78125 -18.171875 L 16.78125 0 L 13.453125 0 L 5.546875 -11.4375 L 5.421875 -11.4375 L 5.421875 0 L 1.578125 0 L 1.578125 -18.171875 L 4.953125 -18.171875 L 12.796875 -6.75 L 12.953125 -6.75 L 12.953125 -18.171875 Z M 16.78125 -18.171875 "/></g></g></g><g fill="#ffffff" fill-opacity="1"><g transform="translate(559.484717, 275.207033)"><g><path d="M 17.609375 -11.8125 L 13.71875 -11.8125 C 13.570312 -12.8125 13.144531 -13.59375 12.4375 -14.15625 C 11.738281 -14.726562 10.863281 -15.015625 9.8125 -15.015625 C 8.40625 -15.015625 7.273438 -14.5 6.421875 -13.46875 C 5.578125 -12.4375 5.15625 -10.972656 5.15625 -9.078125 C 5.15625 -7.140625 5.582031 -5.664062 6.4375 -4.65625 C 7.289062 -3.65625 8.40625 -3.15625 9.78125 -3.15625 C 10.8125 -3.15625 11.679688 -3.421875 12.390625 -3.953125 C 13.097656 -4.484375 13.539062 -5.234375 13.71875 -6.203125 L 17.609375 -6.1875 C 17.472656 -5.082031 17.078125 -4.035156 16.421875 -3.046875 C 15.765625 -2.066406 14.875 -1.269531 13.75 -0.65625 C 12.625 -0.0507812 11.28125 0.25 9.71875 0.25 C 8.101562 0.25 6.65625 -0.113281 5.375 -0.84375 C 4.101562 -1.582031 3.097656 -2.644531 2.359375 -4.03125 C 1.628906 -5.425781 1.265625 -7.109375 1.265625 -9.078125 C 1.265625 -11.066406 1.632812 -12.753906 2.375 -14.140625 C 3.125 -15.535156 4.132812 -16.597656 5.40625 -17.328125 C 6.6875 -18.054688 8.125 -18.421875 9.71875 -18.421875 C 11.125 -18.421875 12.390625 -18.160156 13.515625 -17.640625 C 14.640625 -17.117188 15.5625 -16.363281 16.28125 -15.375 C 17 -14.394531 17.441406 -13.207031 17.609375 -11.8125 Z M 8.78125 -0.0625 L 10.515625 -0.0625 L 10.375 0.71875 C 10.976562 0.8125 11.472656 1.035156 11.859375 1.390625 C 12.253906 1.753906 12.453125 2.25 12.453125 2.875 C 12.460938 3.75 12.054688 4.445312 11.234375 4.96875 C 10.410156 5.5 9.257812 5.765625 7.78125 5.765625 L 7.734375 4.078125 C 8.484375 4.078125 9.070312 3.984375 9.5 3.796875 C 9.925781 3.617188 10.144531 3.34375 10.15625 2.96875 C 10.164062 2.601562 10.023438 2.328125 9.734375 2.140625 C 9.441406 1.953125 8.988281 1.820312 8.375 1.75 Z M 8.78125 -0.0625 "/></g></g></g><g fill="#ffffff" fill-opacity="1"><g transform="translate(578.275991, 275.207033)"><g><path d="M 4.71875 0 L 0.59375 0 L 6.859375 -18.171875 L 11.8125 -18.171875 L 18.078125 0 L 13.96875 0 L 12.609375 -4.140625 L 6.0625 -4.140625 Z M 7.03125 -7.140625 L 11.65625 -7.140625 L 9.40625 -14.015625 L 9.265625 -14.015625 Z M 6.796875 -19.953125 L 4.703125 -19.984375 C 4.703125 -21.117188 4.976562 -21.984375 5.53125 -22.578125 C 6.09375 -23.179688 6.773438 -23.488281 7.578125 -23.5 C 8.046875 -23.5 8.4375 -23.414062 8.75 -23.25 C 9.070312 -23.082031 9.363281 -22.90625 9.625 -22.71875 C 9.832031 -22.570312 10.03125 -22.441406 10.21875 -22.328125 C 10.414062 -22.222656 10.628906 -22.171875 10.859375 -22.171875 C 11.203125 -22.171875 11.460938 -22.296875 11.640625 -22.546875 C 11.816406 -22.804688 11.90625 -23.140625 11.90625 -23.546875 L 13.984375 -23.484375 C 13.972656 -22.359375 13.6875 -21.492188 13.125 -20.890625 C 12.570312 -20.285156 11.894531 -19.984375 11.09375 -19.984375 C 10.59375 -19.984375 10.1875 -20.066406 9.875 -20.234375 C 9.5625 -20.398438 9.28125 -20.578125 9.03125 -20.765625 C 8.84375 -20.910156 8.648438 -21.035156 8.453125 -21.140625 C 8.265625 -21.253906 8.054688 -21.3125 7.828125 -21.3125 C 7.515625 -21.3125 7.265625 -21.1875 7.078125 -20.9375 C 6.890625 -20.695312 6.796875 -20.367188 6.796875 -19.953125 Z M 6.796875 -19.953125 "/></g></g></g><g fill="#ffffff" fill-opacity="1"><g transform="translate(596.960795, 275.207033)"><g><path d="M 18.28125 -9.078125 C 18.28125 -7.097656 17.90625 -5.410156 17.15625 -4.015625 C 16.40625 -2.628906 15.390625 -1.570312 14.109375 -0.84375 C 12.828125 -0.113281 11.378906 0.25 9.765625 0.25 C 8.148438 0.25 6.703125 -0.113281 5.421875 -0.84375 C 4.140625 -1.582031 3.125 -2.644531 2.375 -4.03125 C 1.632812 -5.425781 1.265625 -7.109375 1.265625 -9.078125 C 1.265625 -11.066406 1.632812 -12.753906 2.375 -14.140625 C 3.125 -15.535156 4.140625 -16.597656 5.421875 -17.328125 C 6.703125 -18.054688 8.148438 -18.421875 9.765625 -18.421875 C 11.378906 -18.421875 12.828125 -18.054688 14.109375 -17.328125 C 15.390625 -16.597656 16.40625 -15.535156 17.15625 -14.140625 C 17.90625 -12.753906 18.28125 -11.066406 18.28125 -9.078125 Z M 14.375 -9.078125 C 14.375 -11.015625 13.953125 -12.488281 13.109375 -13.5 C 12.273438 -14.507812 11.160156 -15.015625 9.765625 -15.015625 C 8.367188 -15.015625 7.25 -14.507812 6.40625 -13.5 C 5.570312 -12.488281 5.15625 -11.015625 5.15625 -9.078125 C 5.15625 -7.160156 5.570312 -5.691406 6.40625 -4.671875 C 7.25 -3.660156 8.367188 -3.15625 9.765625 -3.15625 C 11.160156 -3.15625 12.273438 -3.660156 13.109375 -4.671875 C 13.953125 -5.691406 14.375 -7.160156 14.375 -9.078125 Z M 14.375 -9.078125 "/></g></g></g></svg>