<svg xmlns="http://www.w3.org/2000/svg" xmlns:xlink="http://www.w3.org/1999/xlink" width="1366" zoomAndPan="magnify" viewBox="0 0 1024.5 576" height="768" preserveAspectRatio="xMidYMid meet" version="1.0"><defs><g/><clipPath id="e312fe7918"><path d="M 206.851562 206.609375 L 755.835938 206.609375 L 755.835938 325.8125 L 206.851562 325.8125 Z M 206.851562 206.609375 " clip-rule="nonzero"/></clipPath><clipPath id="359ea5c404"><path d="M 208.351562 206.609375 L 753.96875 206.609375 C 754.796875 206.609375 755.46875 207.28125 755.46875 208.109375 L 755.46875 324.3125 C 755.46875 325.140625 754.796875 325.8125 753.96875 325.8125 L 208.351562 325.8125 C 207.523438 325.8125 206.851562 325.140625 206.851562 324.3125 L 206.851562 208.109375 C 206.851562 207.28125 207.523438 206.609375 208.351562 206.609375 Z M 208.351562 206.609375 " clip-rule="nonzero"/></clipPath><clipPath id="28f630b283"><path d="M 753.957031 206.609375 L 837.574219 206.609375 L 837.574219 325.832031 L 753.957031 325.832031 Z M 753.957031 206.609375 " clip-rule="nonzero"/></clipPath><clipPath id="fc487f43e2"><path d="M 837.574219 266.210938 L 753.957031 325.8125 L 753.957031 206.609375 Z M 837.574219 266.210938 " clip-rule="nonzero"/></clipPath><clipPath id="74e4056615"><path d="M 715.128906 247.3125 L 741.363281 247.3125 L 741.363281 284.792969 L 715.128906 284.792969 Z M 715.128906 247.3125 " clip-rule="nonzero"/></clipPath></defs><g clip-path="url(#e312fe7918)"><g clip-path="url(#359ea5c404)"><path fill="#181d47" d="M 206.851562 206.609375 L 755.371094 206.609375 L 755.371094 325.8125 L 206.851562 325.8125 Z M 206.851562 206.609375 " fill-opacity="1" fill-rule="nonzero"/></g></g><g clip-path="url(#28f630b283)"><g clip-path="url(#fc487f43e2)"><path fill="#181d47" d="M 837.574219 206.609375 L 837.574219 325.832031 L 753.957031 325.832031 L 753.957031 206.609375 Z M 837.574219 206.609375 " fill-opacity="1" fill-rule="nonzero"/></g></g><g clip-path="url(#74e4056615)"><path fill="#ffffff" d="M 716.324219 285.066406 C 716 285.066406 715.675781 284.914062 715.46875 284.632812 C 715.125 284.160156 715.226562 283.5 715.699219 283.15625 L 738.746094 266.273438 L 715.699219 249.394531 C 715.226562 249.046875 715.125 248.386719 715.46875 247.914062 C 715.816406 247.445312 716.476562 247.34375 716.949219 247.6875 L 741.160156 265.421875 C 741.429688 265.621094 741.589844 265.9375 741.589844 266.273438 C 741.589844 266.609375 741.429688 266.925781 741.160156 267.125 L 716.949219 284.859375 C 716.757812 285 716.539062 285.066406 716.324219 285.066406 Z M 716.324219 285.066406 " fill-opacity="1" fill-rule="nonzero"/></g><g fill="#ffffff" fill-opacity="1"><g transform="translate(338.132306, 275.206975)"><g><path d="M 1.578125 0 L 1.578125 -18.171875 L 13.609375 -18.171875 L 13.609375 -15 L 5.421875 -15 L 5.421875 -10.671875 L 12.8125 -10.671875 L 12.8125 -7.5 L 5.421875 -7.5 L 5.421875 0 Z M 1.578125 0 "/></g></g></g><g fill="#ffffff" fill-opacity="1"><g transform="translate(352.744773, 275.206975)"><g><path d="M 18.28125 -9.078125 C 18.28125 -7.097656 17.90625 -5.410156 17.15625 -4.015625 C 16.40625 -2.628906 15.390625 -1.570312 14.109375 -0.84375 C 12.828125 -0.113281 11.378906 0.25 9.765625 0.25 C 8.148438 0.25 6.703125 -0.113281 5.421875 -0.84375 C 4.140625 -1.582031 3.125 -2.644531 2.375 -4.03125 C 1.632812 -5.425781 1.265625 -7.109375 1.265625 -9.078125 C 1.265625 -11.066406 1.632812 -12.753906 2.375 -14.140625 C 3.125 -15.535156 4.140625 -16.597656 5.421875 -17.328125 C 6.703125 -18.054688 8.148438 -18.421875 9.765625 -18.421875 C 11.378906 -18.421875 12.828125 -18.054688 14.109375 -17.328125 C 15.390625 -16.597656 16.40625 -15.535156 17.15625 -14.140625 C 17.90625 -12.753906 18.28125 -11.066406 18.28125 -9.078125 Z M 14.375 -9.078125 C 14.375 -11.015625 13.953125 -12.488281 13.109375 -13.5 C 12.273438 -14.507812 11.160156 -15.015625 9.765625 -15.015625 C 8.367188 -15.015625 7.25 -14.507812 6.40625 -13.5 C 5.570312 -12.488281 5.15625 -11.015625 5.15625 -9.078125 C 5.15625 -7.160156 5.570312 -5.691406 6.40625 -4.671875 C 7.25 -3.660156 8.367188 -3.15625 9.765625 -3.15625 C 11.160156 -3.15625 12.273438 -3.660156 13.109375 -4.671875 C 13.953125 -5.691406 14.375 -7.160156 14.375 -9.078125 Z M 8.390625 -19.9375 L 10.28125 -23.96875 L 13.78125 -23.96875 L 11.0625 -19.9375 Z M 8.390625 -19.9375 "/></g></g></g><g fill="#ffffff" fill-opacity="1"><g transform="translate(372.2813, 275.206975)"><g><path d="M 1.578125 0 L 1.578125 -18.171875 L 8.75 -18.171875 C 10.8125 -18.171875 12.410156 -17.628906 13.546875 -16.546875 C 14.691406 -15.472656 15.265625 -14.035156 15.265625 -12.234375 C 15.265625 -10.992188 14.984375 -9.929688 14.421875 -9.046875 C 13.867188 -8.171875 13.078125 -7.507812 12.046875 -7.0625 L 15.90625 0 L 11.671875 0 L 8.21875 -6.4375 L 5.421875 -6.4375 L 5.421875 0 Z M 5.421875 -9.53125 L 8.03125 -9.53125 C 10.207031 -9.53125 11.296875 -10.429688 11.296875 -12.234375 C 11.296875 -14.097656 10.203125 -15.03125 8.015625 -15.03125 L 5.421875 -15.03125 Z M 5.421875 -9.53125 "/></g></g></g><g fill="#ffffff" fill-opacity="1"><g transform="translate(388.677075, 275.206975)"><g><path d="M 1.578125 -18.171875 L 6.3125 -18.171875 L 11.328125 -5.96875 L 11.53125 -5.96875 L 16.53125 -18.171875 L 21.28125 -18.171875 L 21.28125 0 L 17.546875 0 L 17.546875 -11.828125 L 17.40625 -11.828125 L 12.703125 -0.09375 L 10.15625 -0.09375 L 5.453125 -11.875 L 5.3125 -11.875 L 5.3125 0 L 1.578125 0 Z M 1.578125 -18.171875 "/></g></g></g><g fill="#ffffff" fill-opacity="1"><g transform="translate(411.762468, 275.206975)"><g><path d="M 12.828125 -18.171875 L 16.640625 -18.171875 L 16.640625 -6.15625 C 16.640625 -4.78125 16.316406 -3.613281 15.671875 -2.65625 C 15.023438 -1.707031 14.132812 -0.984375 13 -0.484375 C 11.875 0.00390625 10.578125 0.25 9.109375 0.25 C 7.640625 0.25 6.335938 0.00390625 5.203125 -0.484375 C 4.066406 -0.984375 3.175781 -1.707031 2.53125 -2.65625 C 1.894531 -3.613281 1.578125 -4.78125 1.578125 -6.15625 L 1.578125 -18.171875 L 5.421875 -18.171875 L 5.421875 -6.296875 C 5.421875 -5.316406 5.769531 -4.550781 6.46875 -4 C 7.175781 -3.445312 8.054688 -3.171875 9.109375 -3.171875 C 10.191406 -3.171875 11.082031 -3.445312 11.78125 -4 C 12.476562 -4.550781 12.828125 -5.316406 12.828125 -6.296875 Z M 12.828125 -18.171875 "/></g></g></g><g fill="#ffffff" fill-opacity="1"><g transform="translate(429.985911, 275.206975)"><g><path d="M 1.578125 0 L 1.578125 -18.171875 L 5.421875 -18.171875 L 5.421875 -3.171875 L 13.203125 -3.171875 L 13.203125 0 Z M 1.578125 0 "/></g></g></g><g fill="#ffffff" fill-opacity="1"><g transform="translate(444.163645, 275.206975)"><g><path d="M 4.71875 0 L 0.59375 0 L 6.859375 -18.171875 L 11.8125 -18.171875 L 18.078125 0 L 13.96875 0 L 12.609375 -4.140625 L 6.0625 -4.140625 Z M 7.03125 -7.140625 L 11.65625 -7.140625 L 9.40625 -14.015625 L 9.265625 -14.015625 Z M 7.03125 -7.140625 "/></g></g></g><g fill="#ffffff" fill-opacity="1"><g transform="translate(462.848438, 275.206975)"><g/></g></g><g fill="#ffffff" fill-opacity="1"><g transform="translate(468.641963, 275.206975)"><g><path d="M 8.015625 0 L 1.578125 0 L 1.578125 -18.171875 L 8.078125 -18.171875 C 9.898438 -18.171875 11.472656 -17.804688 12.796875 -17.078125 C 14.117188 -16.359375 15.132812 -15.320312 15.84375 -13.96875 C 16.550781 -12.613281 16.90625 -10.992188 16.90625 -9.109375 C 16.90625 -7.210938 16.546875 -5.582031 15.828125 -4.21875 C 15.117188 -2.863281 14.097656 -1.820312 12.765625 -1.09375 C 11.441406 -0.363281 9.859375 0 8.015625 0 Z M 5.421875 -3.296875 L 7.859375 -3.296875 C 9.566406 -3.296875 10.863281 -3.753906 11.75 -4.671875 C 12.632812 -5.597656 13.078125 -7.078125 13.078125 -9.109375 C 13.078125 -11.117188 12.632812 -12.582031 11.75 -13.5 C 10.863281 -14.414062 9.570312 -14.875 7.875 -14.875 L 5.421875 -14.875 Z M 5.421875 -3.296875 "/></g></g></g><g fill="#ffffff" fill-opacity="1"><g transform="translate(486.812172, 275.206975)"><g><path d="M 1.578125 0 L 1.578125 -18.171875 L 13.828125 -18.171875 L 13.828125 -15 L 5.421875 -15 L 5.421875 -10.671875 L 13.1875 -10.671875 L 13.1875 -7.5 L 5.421875 -7.5 L 5.421875 -3.171875 L 13.859375 -3.171875 L 13.859375 0 Z M 1.578125 0 "/></g></g></g><g fill="#ffffff" fill-opacity="1"><g transform="translate(502.116668, 275.206975)"><g/></g></g><g fill="#ffffff" fill-opacity="1"><g transform="translate(507.910193, 275.206975)"><g><path d="M 1.578125 0 L 1.578125 -18.171875 L 8.859375 -18.171875 C 10.859375 -18.171875 12.363281 -17.734375 13.375 -16.859375 C 14.382812 -15.984375 14.890625 -14.867188 14.890625 -13.515625 C 14.890625 -12.441406 14.578125 -11.570312 13.953125 -10.90625 C 13.335938 -10.25 12.554688 -9.816406 11.609375 -9.609375 L 11.609375 -9.4375 C 12.296875 -9.40625 12.941406 -9.207031 13.546875 -8.84375 C 14.160156 -8.476562 14.65625 -7.972656 15.03125 -7.328125 C 15.40625 -6.691406 15.59375 -5.921875 15.59375 -5.015625 C 15.59375 -4.054688 15.351562 -3.195312 14.875 -2.4375 C 14.40625 -1.675781 13.707031 -1.078125 12.78125 -0.640625 C 11.851562 -0.210938 10.707031 0 9.34375 0 Z M 5.421875 -3.140625 L 8.546875 -3.140625 C 9.628906 -3.140625 10.410156 -3.347656 10.890625 -3.765625 C 11.378906 -4.179688 11.625 -4.726562 11.625 -5.40625 C 11.625 -6.15625 11.359375 -6.769531 10.828125 -7.25 C 10.296875 -7.726562 9.566406 -7.96875 8.640625 -7.96875 L 5.421875 -7.96875 Z M 5.421875 -10.5625 L 8.265625 -10.5625 C 9.054688 -10.5625 9.710938 -10.765625 10.234375 -11.171875 C 10.753906 -11.585938 11.015625 -12.15625 11.015625 -12.875 C 11.015625 -13.53125 10.78125 -14.054688 10.3125 -14.453125 C 9.851562 -14.859375 9.195312 -15.0625 8.34375 -15.0625 L 5.421875 -15.0625 Z M 5.421875 -10.5625 "/></g></g></g><g fill="#ffffff" fill-opacity="1"><g transform="translate(524.421303, 275.206975)"><g><path d="M 1.578125 0 L 1.578125 -18.171875 L 5.421875 -18.171875 L 5.421875 -10.671875 L 13.21875 -10.671875 L 13.21875 -18.171875 L 17.046875 -18.171875 L 17.046875 0 L 13.21875 0 L 13.21875 -7.5 L 5.421875 -7.5 L 5.421875 0 Z M 1.578125 0 "/></g></g></g><g fill="#ffffff" fill-opacity="1"><g transform="translate(543.061748, 275.206975)"><g><path d="M 4.71875 0 L 0.59375 0 L 6.859375 -18.171875 L 11.8125 -18.171875 L 18.078125 0 L 13.96875 0 L 12.609375 -4.140625 L 6.0625 -4.140625 Z M 7.03125 -7.140625 L 11.65625 -7.140625 L 9.40625 -14.015625 L 9.265625 -14.015625 Z M 7.96875 -19.9375 L 9.859375 -23.96875 L 13.359375 -23.96875 L 10.640625 -19.9375 Z M 7.96875 -19.9375 "/></g></g></g><g fill="#ffffff" fill-opacity="1"><g transform="translate(561.746552, 275.206975)"><g><path d="M 11.4375 -12.9375 C 11.363281 -13.65625 11.054688 -14.210938 10.515625 -14.609375 C 9.972656 -15.003906 9.242188 -15.203125 8.328125 -15.203125 C 7.390625 -15.203125 6.664062 -15.007812 6.15625 -14.625 C 5.65625 -14.238281 5.40625 -13.753906 5.40625 -13.171875 C 5.394531 -12.523438 5.675781 -12.035156 6.25 -11.703125 C 6.820312 -11.367188 7.5 -11.109375 8.28125 -10.921875 L 9.921875 -10.53125 C 10.972656 -10.289062 11.90625 -9.945312 12.71875 -9.5 C 13.539062 -9.050781 14.1875 -8.472656 14.65625 -7.765625 C 15.125 -7.054688 15.359375 -6.195312 15.359375 -5.1875 C 15.359375 -3.53125 14.738281 -2.207031 13.5 -1.21875 C 12.257812 -0.238281 10.53125 0.25 8.3125 0.25 C 6.101562 0.25 4.34375 -0.25 3.03125 -1.25 C 1.71875 -2.257812 1.039062 -3.742188 1 -5.703125 L 4.71875 -5.703125 C 4.78125 -4.796875 5.132812 -4.113281 5.78125 -3.65625 C 6.4375 -3.195312 7.265625 -2.96875 8.265625 -2.96875 C 9.242188 -2.96875 10.023438 -3.171875 10.609375 -3.578125 C 11.191406 -3.992188 11.484375 -4.535156 11.484375 -5.203125 C 11.484375 -5.816406 11.21875 -6.285156 10.6875 -6.609375 C 10.15625 -6.941406 9.394531 -7.226562 8.40625 -7.46875 L 6.421875 -7.96875 C 4.890625 -8.332031 3.679688 -8.910156 2.796875 -9.703125 C 1.910156 -10.503906 1.46875 -11.578125 1.46875 -12.921875 C 1.46875 -14.015625 1.765625 -14.972656 2.359375 -15.796875 C 2.953125 -16.628906 3.769531 -17.273438 4.8125 -17.734375 C 5.851562 -18.191406 7.035156 -18.421875 8.359375 -18.421875 C 9.703125 -18.421875 10.878906 -18.1875 11.890625 -17.71875 C 12.898438 -17.257812 13.6875 -16.617188 14.25 -15.796875 C 14.8125 -14.972656 15.101562 -14.019531 15.125 -12.9375 Z M 11.4375 -12.9375 "/></g></g></g><g fill="#ffffff" fill-opacity="1"><g transform="translate(578.106823, 275.206975)"><g><path d="M 1.578125 0 L 1.578125 -18.171875 L 5.421875 -18.171875 L 5.421875 -10.15625 L 5.65625 -10.15625 L 12.203125 -18.171875 L 16.796875 -18.171875 L 10.0625 -10.03125 L 16.890625 0 L 12.28125 0 L 7.3125 -7.46875 L 5.421875 -5.15625 L 5.421875 0 Z M 1.578125 0 "/></g></g></g><g fill="#ffffff" fill-opacity="1"><g transform="translate(595.33658, 275.206975)"><g><path d="M 4.71875 0 L 0.59375 0 L 6.859375 -18.171875 L 11.8125 -18.171875 L 18.078125 0 L 13.96875 0 L 12.609375 -4.140625 L 6.0625 -4.140625 Z M 7.03125 -7.140625 L 11.65625 -7.140625 L 9.40625 -14.015625 L 9.265625 -14.015625 Z M 7.03125 -7.140625 "/></g></g></g><g fill="#ffffff" fill-opacity="1"><g transform="translate(614.021361, 275.206975)"><g><path d="M 1.578125 0 L 1.578125 -18.171875 L 8.75 -18.171875 C 10.8125 -18.171875 12.410156 -17.628906 13.546875 -16.546875 C 14.691406 -15.472656 15.265625 -14.035156 15.265625 -12.234375 C 15.265625 -10.992188 14.984375 -9.929688 14.421875 -9.046875 C 13.867188 -8.171875 13.078125 -7.507812 12.046875 -7.0625 L 15.90625 0 L 11.671875 0 L 8.21875 -6.4375 L 5.421875 -6.4375 L 5.421875 0 Z M 5.421875 -9.53125 L 8.03125 -9.53125 C 10.207031 -9.53125 11.296875 -10.429688 11.296875 -12.234375 C 11.296875 -14.097656 10.203125 -15.03125 8.015625 -15.03125 L 5.421875 -15.03125 Z M 5.421875 -9.53125 "/></g></g></g><g fill="#ffffff" fill-opacity="1"><g transform="translate(630.417136, 275.206975)"><g><path d="M 4.71875 0 L 0.59375 0 L 6.859375 -18.171875 L 11.8125 -18.171875 L 18.078125 0 L 13.96875 0 L 12.609375 -4.140625 L 6.0625 -4.140625 Z M 7.03125 -7.140625 L 11.65625 -7.140625 L 9.40625 -14.015625 L 9.265625 -14.015625 Z M 7.03125 -7.140625 "/></g></g></g></svg>