<svg xmlns="http://www.w3.org/2000/svg" xmlns:xlink="http://www.w3.org/1999/xlink" width="1366" zoomAndPan="magnify" viewBox="0 0 1024.5 576" height="768" preserveAspectRatio="xMidYMid meet" version="1.0"><defs><g/><clipPath id="9f5f7e76ce"><path d="M 206.851562 206.609375 L 755.835938 206.609375 L 755.835938 325.8125 L 206.851562 325.8125 Z M 206.851562 206.609375 " clip-rule="nonzero"/></clipPath><clipPath id="2556e61c33"><path d="M 208.351562 206.609375 L 753.96875 206.609375 C 754.796875 206.609375 755.46875 207.28125 755.46875 208.109375 L 755.46875 324.3125 C 755.46875 325.140625 754.796875 325.8125 753.96875 325.8125 L 208.351562 325.8125 C 207.523438 325.8125 206.851562 325.140625 206.851562 324.3125 L 206.851562 208.109375 C 206.851562 207.28125 207.523438 206.609375 208.351562 206.609375 Z M 208.351562 206.609375 " clip-rule="nonzero"/></clipPath><clipPath id="3b8fb1311d"><path d="M 753.957031 206.609375 L 837.574219 206.609375 L 837.574219 325.832031 L 753.957031 325.832031 Z M 753.957031 206.609375 " clip-rule="nonzero"/></clipPath><clipPath id="ce320ce47a"><path d="M 837.574219 266.210938 L 753.957031 325.8125 L 753.957031 206.609375 Z M 837.574219 266.210938 " clip-rule="nonzero"/></clipPath><clipPath id="f82e692dcf"><path d="M 715.128906 247.3125 L 741.363281 247.3125 L 741.363281 284.792969 L 715.128906 284.792969 Z M 715.128906 247.3125 " clip-rule="nonzero"/></clipPath></defs><g clip-path="url(#9f5f7e76ce)"><g clip-path="url(#2556e61c33)"><path fill="#181d47" d="M 206.851562 206.609375 L 755.371094 206.609375 L 755.371094 325.8125 L 206.851562 325.8125 Z M 206.851562 206.609375 " fill-opacity="1" fill-rule="nonzero"/></g></g><g clip-path="url(#3b8fb1311d)"><g clip-path="url(#ce320ce47a)"><path fill="#181d47" d="M 837.574219 206.609375 L 837.574219 325.832031 L 753.957031 325.832031 L 753.957031 206.609375 Z M 837.574219 206.609375 " fill-opacity="1" fill-rule="nonzero"/></g></g><g clip-path="url(#f82e692dcf)"><path fill="#ffffff" d="M 716.324219 285.066406 C 716 285.066406 715.675781 284.914062 715.46875 284.632812 C 715.125 284.160156 715.226562 283.5 715.699219 283.152344 L 738.746094 266.273438 L 715.699219 249.394531 C 715.226562 249.046875 715.125 248.386719 715.46875 247.914062 C 715.816406 247.445312 716.476562 247.34375 716.949219 247.6875 L 741.160156 265.421875 C 741.429688 265.617188 741.589844 265.9375 741.589844 266.273438 C 741.589844 266.609375 741.429688 266.925781 741.160156 267.125 L 716.949219 284.859375 C 716.757812 284.996094 716.539062 285.066406 716.324219 285.066406 Z M 716.324219 285.066406 " fill-opacity="1" fill-rule="nonzero"/></g><g fill="#ffffff" fill-opacity="1"><g transform="translate(404.731382, 275.207033)"><g><path d="M 17.609375 -11.8125 L 13.71875 -11.8125 C 13.570312 -12.8125 13.144531 -13.59375 12.4375 -14.15625 C 11.738281 -14.726562 10.863281 -15.015625 9.8125 -15.015625 C 8.40625 -15.015625 7.273438 -14.5 6.421875 -13.46875 C 5.578125 -12.4375 5.15625 -10.972656 5.15625 -9.078125 C 5.15625 -7.140625 5.582031 -5.664062 6.4375 -4.65625 C 7.289062 -3.65625 8.40625 -3.15625 9.78125 -3.15625 C 10.8125 -3.15625 11.679688 -3.421875 12.390625 -3.953125 C 13.097656 -4.484375 13.539062 -5.234375 13.71875 -6.203125 L 17.609375 -6.1875 C 17.472656 -5.082031 17.078125 -4.035156 16.421875 -3.046875 C 15.765625 -2.066406 14.875 -1.269531 13.75 -0.65625 C 12.625 -0.0507812 11.28125 0.25 9.71875 0.25 C 8.101562 0.25 6.65625 -0.113281 5.375 -0.84375 C 4.101562 -1.582031 3.097656 -2.644531 2.359375 -4.03125 C 1.628906 -5.425781 1.265625 -7.109375 1.265625 -9.078125 C 1.265625 -11.066406 1.632812 -12.753906 2.375 -14.140625 C 3.125 -15.535156 4.132812 -16.597656 5.40625 -17.328125 C 6.6875 -18.054688 8.125 -18.421875 9.71875 -18.421875 C 11.125 -18.421875 12.390625 -18.160156 13.515625 -17.640625 C 14.640625 -17.117188 15.5625 -16.363281 16.28125 -15.375 C 17 -14.394531 17.441406 -13.207031 17.609375 -11.8125 Z M 17.609375 -11.8125 "/></g></g></g><g fill="#ffffff" fill-opacity="1"><g transform="translate(423.522644, 275.207033)"><g><path d="M 12.828125 -18.171875 L 16.640625 -18.171875 L 16.640625 -6.15625 C 16.640625 -4.78125 16.316406 -3.613281 15.671875 -2.65625 C 15.023438 -1.707031 14.132812 -0.984375 13 -0.484375 C 11.875 0.00390625 10.578125 0.25 9.109375 0.25 C 7.640625 0.25 6.335938 0.00390625 5.203125 -0.484375 C 4.066406 -0.984375 3.175781 -1.707031 2.53125 -2.65625 C 1.894531 -3.613281 1.578125 -4.78125 1.578125 -6.15625 L 1.578125 -18.171875 L 5.421875 -18.171875 L 5.421875 -6.296875 C 5.421875 -5.316406 5.769531 -4.550781 6.46875 -4 C 7.175781 -3.445312 8.054688 -3.171875 9.109375 -3.171875 C 10.191406 -3.171875 11.082031 -3.445312 11.78125 -4 C 12.476562 -4.550781 12.828125 -5.316406 12.828125 -6.296875 Z M 12.828125 -18.171875 "/></g></g></g><g fill="#ffffff" fill-opacity="1"><g transform="translate(441.746087, 275.207033)"><g><path d="M 1.578125 0 L 1.578125 -18.171875 L 8.75 -18.171875 C 10.8125 -18.171875 12.410156 -17.628906 13.546875 -16.546875 C 14.691406 -15.472656 15.265625 -14.035156 15.265625 -12.234375 C 15.265625 -10.992188 14.984375 -9.929688 14.421875 -9.046875 C 13.867188 -8.171875 13.078125 -7.507812 12.046875 -7.0625 L 15.90625 0 L 11.671875 0 L 8.21875 -6.4375 L 5.421875 -6.4375 L 5.421875 0 Z M 5.421875 -9.53125 L 8.03125 -9.53125 C 10.207031 -9.53125 11.296875 -10.429688 11.296875 -12.234375 C 11.296875 -14.097656 10.203125 -15.03125 8.015625 -15.03125 L 5.421875 -15.03125 Z M 5.421875 -9.53125 "/></g></g></g><g fill="#ffffff" fill-opacity="1"><g transform="translate(458.141863, 275.207033)"><g><path d="M 5.421875 -18.171875 L 5.421875 0 L 1.578125 0 L 1.578125 -18.171875 Z M 5.421875 -18.171875 "/></g></g></g><g fill="#ffffff" fill-opacity="1"><g transform="translate(465.150878, 275.207033)"><g><path d="M 18.28125 -9.078125 C 18.28125 -7.097656 17.90625 -5.410156 17.15625 -4.015625 C 16.40625 -2.628906 15.390625 -1.570312 14.109375 -0.84375 C 12.828125 -0.113281 11.378906 0.25 9.765625 0.25 C 8.148438 0.25 6.703125 -0.113281 5.421875 -0.84375 C 4.140625 -1.582031 3.125 -2.644531 2.375 -4.03125 C 1.632812 -5.425781 1.265625 -7.109375 1.265625 -9.078125 C 1.265625 -11.066406 1.632812 -12.753906 2.375 -14.140625 C 3.125 -15.535156 4.140625 -16.597656 5.421875 -17.328125 C 6.703125 -18.054688 8.148438 -18.421875 9.765625 -18.421875 C 11.378906 -18.421875 12.828125 -18.054688 14.109375 -17.328125 C 15.390625 -16.597656 16.40625 -15.535156 17.15625 -14.140625 C 17.90625 -12.753906 18.28125 -11.066406 18.28125 -9.078125 Z M 14.375 -9.078125 C 14.375 -11.015625 13.953125 -12.488281 13.109375 -13.5 C 12.273438 -14.507812 11.160156 -15.015625 9.765625 -15.015625 C 8.367188 -15.015625 7.25 -14.507812 6.40625 -13.5 C 5.570312 -12.488281 5.15625 -11.015625 5.15625 -9.078125 C 5.15625 -7.160156 5.570312 -5.691406 6.40625 -4.671875 C 7.25 -3.660156 8.367188 -3.15625 9.765625 -3.15625 C 11.160156 -3.15625 12.273438 -3.660156 13.109375 -4.671875 C 13.953125 -5.691406 14.375 -7.160156 14.375 -9.078125 Z M 14.375 -9.078125 "/></g></g></g><g fill="#ffffff" fill-opacity="1"><g transform="translate(484.687405, 275.207033)"><g><path d="M 11.4375 -12.9375 C 11.363281 -13.65625 11.054688 -14.210938 10.515625 -14.609375 C 9.972656 -15.003906 9.242188 -15.203125 8.328125 -15.203125 C 7.390625 -15.203125 6.664062 -15.007812 6.15625 -14.625 C 5.65625 -14.238281 5.40625 -13.753906 5.40625 -13.171875 C 5.394531 -12.523438 5.675781 -12.035156 6.25 -11.703125 C 6.820312 -11.367188 7.5 -11.109375 8.28125 -10.921875 L 9.921875 -10.53125 C 10.972656 -10.289062 11.90625 -9.945312 12.71875 -9.5 C 13.539062 -9.050781 14.1875 -8.472656 14.65625 -7.765625 C 15.125 -7.054688 15.359375 -6.195312 15.359375 -5.1875 C 15.359375 -3.53125 14.738281 -2.207031 13.5 -1.21875 C 12.257812 -0.238281 10.53125 0.25 8.3125 0.25 C 6.101562 0.25 4.34375 -0.25 3.03125 -1.25 C 1.71875 -2.257812 1.039062 -3.742188 1 -5.703125 L 4.71875 -5.703125 C 4.78125 -4.796875 5.132812 -4.113281 5.78125 -3.65625 C 6.4375 -3.195312 7.265625 -2.96875 8.265625 -2.96875 C 9.242188 -2.96875 10.023438 -3.171875 10.609375 -3.578125 C 11.191406 -3.992188 11.484375 -4.535156 11.484375 -5.203125 C 11.484375 -5.816406 11.21875 -6.285156 10.6875 -6.609375 C 10.15625 -6.941406 9.394531 -7.226562 8.40625 -7.46875 L 6.421875 -7.96875 C 4.890625 -8.332031 3.679688 -8.910156 2.796875 -9.703125 C 1.910156 -10.503906 1.46875 -11.578125 1.46875 -12.921875 C 1.46875 -14.015625 1.765625 -14.972656 2.359375 -15.796875 C 2.953125 -16.628906 3.769531 -17.273438 4.8125 -17.734375 C 5.851562 -18.191406 7.035156 -18.421875 8.359375 -18.421875 C 9.703125 -18.421875 10.878906 -18.1875 11.890625 -17.71875 C 12.898438 -17.257812 13.6875 -16.617188 14.25 -15.796875 C 14.8125 -14.972656 15.101562 -14.019531 15.125 -12.9375 Z M 11.4375 -12.9375 "/></g></g></g><g fill="#ffffff" fill-opacity="1"><g transform="translate(501.047687, 275.207033)"><g><path d="M 5.421875 -18.171875 L 5.421875 0 L 1.578125 0 L 1.578125 -18.171875 Z M 5.421875 -18.171875 "/></g></g></g><g fill="#ffffff" fill-opacity="1"><g transform="translate(508.056702, 275.207033)"><g><path d="M 8.015625 0 L 1.578125 0 L 1.578125 -18.171875 L 8.078125 -18.171875 C 9.898438 -18.171875 11.472656 -17.804688 12.796875 -17.078125 C 14.117188 -16.359375 15.132812 -15.320312 15.84375 -13.96875 C 16.550781 -12.613281 16.90625 -10.992188 16.90625 -9.109375 C 16.90625 -7.210938 16.546875 -5.582031 15.828125 -4.21875 C 15.117188 -2.863281 14.097656 -1.820312 12.765625 -1.09375 C 11.441406 -0.363281 9.859375 0 8.015625 0 Z M 5.421875 -3.296875 L 7.859375 -3.296875 C 9.566406 -3.296875 10.863281 -3.753906 11.75 -4.671875 C 12.632812 -5.597656 13.078125 -7.078125 13.078125 -9.109375 C 13.078125 -11.117188 12.632812 -12.582031 11.75 -13.5 C 10.863281 -14.414062 9.570312 -14.875 7.875 -14.875 L 5.421875 -14.875 Z M 5.421875 -3.296875 "/></g></g></g><g fill="#ffffff" fill-opacity="1"><g transform="translate(526.226911, 275.207033)"><g><path d="M 4.71875 0 L 0.59375 0 L 6.859375 -18.171875 L 11.8125 -18.171875 L 18.078125 0 L 13.96875 0 L 12.609375 -4.140625 L 6.0625 -4.140625 Z M 7.03125 -7.140625 L 11.65625 -7.140625 L 9.40625 -14.015625 L 9.265625 -14.015625 Z M 7.03125 -7.140625 "/></g></g></g><g fill="#ffffff" fill-opacity="1"><g transform="translate(544.911704, 275.207033)"><g><path d="M 8.015625 0 L 1.578125 0 L 1.578125 -18.171875 L 8.078125 -18.171875 C 9.898438 -18.171875 11.472656 -17.804688 12.796875 -17.078125 C 14.117188 -16.359375 15.132812 -15.320312 15.84375 -13.96875 C 16.550781 -12.613281 16.90625 -10.992188 16.90625 -9.109375 C 16.90625 -7.210938 16.546875 -5.582031 15.828125 -4.21875 C 15.117188 -2.863281 14.097656 -1.820312 12.765625 -1.09375 C 11.441406 -0.363281 9.859375 0 8.015625 0 Z M 5.421875 -3.296875 L 7.859375 -3.296875 C 9.566406 -3.296875 10.863281 -3.753906 11.75 -4.671875 C 12.632812 -5.597656 13.078125 -7.078125 13.078125 -9.109375 C 13.078125 -11.117188 12.632812 -12.582031 11.75 -13.5 C 10.863281 -14.414062 9.570312 -14.875 7.875 -14.875 L 5.421875 -14.875 Z M 5.421875 -3.296875 "/></g></g></g><g fill="#ffffff" fill-opacity="1"><g transform="translate(563.081912, 275.207033)"><g><path d="M 1.578125 0 L 1.578125 -18.171875 L 13.828125 -18.171875 L 13.828125 -15 L 5.421875 -15 L 5.421875 -10.671875 L 13.1875 -10.671875 L 13.1875 -7.5 L 5.421875 -7.5 L 5.421875 -3.171875 L 13.859375 -3.171875 L 13.859375 0 Z M 1.578125 0 "/></g></g></g><g fill="#ffffff" fill-opacity="1"><g transform="translate(578.386409, 275.207033)"><g><path d="M 11.4375 -12.9375 C 11.363281 -13.65625 11.054688 -14.210938 10.515625 -14.609375 C 9.972656 -15.003906 9.242188 -15.203125 8.328125 -15.203125 C 7.390625 -15.203125 6.664062 -15.007812 6.15625 -14.625 C 5.65625 -14.238281 5.40625 -13.753906 5.40625 -13.171875 C 5.394531 -12.523438 5.675781 -12.035156 6.25 -11.703125 C 6.820312 -11.367188 7.5 -11.109375 8.28125 -10.921875 L 9.921875 -10.53125 C 10.972656 -10.289062 11.90625 -9.945312 12.71875 -9.5 C 13.539062 -9.050781 14.1875 -8.472656 14.65625 -7.765625 C 15.125 -7.054688 15.359375 -6.195312 15.359375 -5.1875 C 15.359375 -3.53125 14.738281 -2.207031 13.5 -1.21875 C 12.257812 -0.238281 10.53125 0.25 8.3125 0.25 C 6.101562 0.25 4.34375 -0.25 3.03125 -1.25 C 1.71875 -2.257812 1.039062 -3.742188 1 -5.703125 L 4.71875 -5.703125 C 4.78125 -4.796875 5.132812 -4.113281 5.78125 -3.65625 C 6.4375 -3.195312 7.265625 -2.96875 8.265625 -2.96875 C 9.242188 -2.96875 10.023438 -3.171875 10.609375 -3.578125 C 11.191406 -3.992188 11.484375 -4.535156 11.484375 -5.203125 C 11.484375 -5.816406 11.21875 -6.285156 10.6875 -6.609375 C 10.15625 -6.941406 9.394531 -7.226562 8.40625 -7.46875 L 6.421875 -7.96875 C 4.890625 -8.332031 3.679688 -8.910156 2.796875 -9.703125 C 1.910156 -10.503906 1.46875 -11.578125 1.46875 -12.921875 C 1.46875 -14.015625 1.765625 -14.972656 2.359375 -15.796875 C 2.953125 -16.628906 3.769531 -17.273438 4.8125 -17.734375 C 5.851562 -18.191406 7.035156 -18.421875 8.359375 -18.421875 C 9.703125 -18.421875 10.878906 -18.1875 11.890625 -17.71875 C 12.898438 -17.257812 13.6875 -16.617188 14.25 -15.796875 C 14.8125 -14.972656 15.101562 -14.019531 15.125 -12.9375 Z M 11.4375 -12.9375 "/></g></g></g></svg>